<?xml version="1.0" encoding="UTF-8"?>
<svg 
	width="48px" 
	height="42px" 
	viewBox="0 0 48 42" 
	version="1.1" 
	xmlns="http://www.w3.org/2000/svg" 
	xmlns:xlink="http://www.w3.org/1999/xlink"
>
	<title>5DEFDA8E-71D6-45C6-BA37-C9D7A7AFBCE5</title>
	<desc>Created with sketchtool.</desc>
	<defs></defs>
	<g 
		id="VPN----Error-messages" 
		stroke="none" 
		stroke-width="1" 
		fill="none" 
		fill-rule="evenodd" 
		transform="translate(-195.000000, -942.000000)"
	>
		<g 
			id="Icon-Offline" 
			transform="translate(195.000000, 942.000000)"
		>
			<path 
				d="M37,41 C42.5228475,41 47,36.5228475 47,31 C47,25.4771525 42.5228475,21 37,21 C31.4771525,21 27,25.4771525 27,31 C27,36.5228475 31.4771525,41 37,41 Z M37,42 C30.9248678,42 26,37.0751322 26,31 C26,24.9248678 30.9248678,20 37,20 C43.0751322,20 48,24.9248678 48,31 C48,37.0751322 43.0751322,42 37,42 Z" 
				id="Oval-4" 
				fill="#979797" 
				fill-rule="nonzero"
			>
			</path>
			<path 
				d="M39.3350731,27.2832745 C39.7107704,26.9075773 40.3297113,26.9072232 40.7112441,27.2887559 C41.0954368,27.6729487 41.0952309,28.2864214 40.7167255,28.6649269 L38.3797057,31.0019466 L40.7167255,33.3389663 C41.0924227,33.7146636 41.0927768,34.3336045 40.7112441,34.7151373 C40.3270513,35.09933 39.7135786,35.0991241 39.3350731,34.7206187 L36.9980534,32.383599 L34.6610337,34.7206187 C34.2853364,35.096316 33.6663955,35.09667 33.2848627,34.7151373 C32.90067,34.3309445 32.9008759,33.7174718 33.2793813,33.3389663 L35.616401,31.0019466 L33.2793813,28.6649269 C32.903684,28.2892296 32.90333,27.6702887 33.2848627,27.2887559 C33.6690555,26.9045632 34.2825282,26.9047691 34.6610337,27.2832745 L36.9980534,29.6202943 L39.3350731,27.2832745 Z" 
				id="x" 
				fill="#999999"
			>
			</path>
			<path 
				d="M36.2185718,20.509482 C36.2636949,20.3185004 36.2999263,20.1041724 36.327266,19.8664981 C36.3971841,19.4434388 36.4321946,19.0182153 36.4383866,18.569158 C36.4473887,17.916314 36.4248919,17.5862347 36.2850582,15.9855596 C36.1646931,14.6077422 35.7490838,13.2280885 35.0651335,11.8445098 C34.4721924,10.3658222 33.7334171,9.09571275 32.8488076,8.03418144 C30.2731677,5.45854151 27.6975278,3.68778906 25.1218879,2.72192409 C24.4779779,2.39996909 23.9896607,2.2389916 23.6569364,2.2389916 C22.7990362,1.95195808 21.5803466,1.72179119 20.1474555,1.64126987 C17.9859098,1.47094358 15.8577282,1.69908899 13.8531809,2.2743925 C9.77161875,3.35099846 5.55129891,5.90639865 3.07923919,11.1349335 C2.56023875,12.1653592 2.1385666,13.2630746 1.82859333,14.4199105 C1.33494364,16.2622362 1.16160607,18.116354 1.2748103,19.9246674 C1.55699474,29.6507024 9.58726182,34.4075619 14.4973731,36.0442657 C15.6796289,36.1833546 16.7942854,36.2698662 17.8413425,36.3038006 C18.8717423,36.3572995 19.9192494,36.3324952 20.9259623,36.2359495 C23.2560445,36.0379619 25.1376188,35.4911348 26.5706853,34.5954682 L27.1765564,35.2242844 C27.1296995,35.2614143 27.0816446,35.2980708 27.032425,35.3342517 L26.5706853,34.5954682 L25.8751436,35.2656301 L26.3550607,35.7637222 C24.9885715,36.5163223 23.0605329,37.003741 20.9972006,37.1993796 C20.0194342,37.2819867 18.9710886,37.3054795 17.8520522,37.2705811 C16.5569558,37.2068284 15.2917398,37.0261528 14.1575349,36.7222435 C6.18472385,34.5859352 0.78784438,27.6757215 0.309899677,19.9759613 C0.254570353,18.0736648 0.48186964,16.0485926 1.01317511,13.9019754 C1.33610269,12.7836295 1.72800478,11.738056 2.18433607,10.7643004 C4.49645862,6.12711174 8.66932671,2.77216861 13.5368106,1.36037327 C15.6348938,0.802095501 17.8345212,0.581520951 19.8258266,0.651163892 C21.0958225,0.724264242 22.378387,0.92740815 23.6569364,1.26999443 C23.662179,1.27209025 23.662179,1.59508931 23.6569364,2.2389916 L23.9536878,1.35204602 C24.463614,1.49742471 24.9627089,1.66244544 25.4503444,1.84604004 L25.1218879,2.72192409 L25.5423699,1.88095995 C28.663606,3.07459716 31.3109258,5.03096105 33.3181359,7.46743357 C34.321197,8.68500953 35.2374217,10.0132201 35.9362137,11.4307309 C36.4606898,12.7314177 36.8778021,14.1863769 37.1901176,15.8025474 C37.3665264,17.5153492 37.412142,18.8801071 37.2951831,19.92938 C37.2230871,20.3958696 37.1106597,20.87818 36.9439454,21.3923837 C36.9358084,21.4111318 36.5366275,21.4387862 35.7464026,21.4753469 C35.8586125,21.3725408 35.9561568,21.2312283 36.0390356,21.0514096 C36.0264784,21.0907518 36.0135935,21.1302385 36.0003766,21.1698853 L36.9166671,20.509482 L36.2185718,20.509482 Z M36.9166671,21.4753469 L35.7464026,21.4753469 C36.3903125,20.8853997 36.55129,19.0274516 36.2293351,15.9015025 C35.5854251,12.5883517 34.4585826,9.96591139 32.8488076,8.03418144 C30.2731677,5.45854151 27.6975278,3.68778906 25.1218879,2.72192409 C24.4779779,2.39996909 23.9896607,2.2389916 23.6569364,2.2389916 C19.326698,0.790194139 5.80458839,0.790194139 1.94112849,14.1699263 C-1.43939891,27.8344134 8.70218331,34.1125357 14.4973731,36.0442657 C19.970608,36.6881757 23.9950454,36.2052432 26.5706853,34.5954682 L27.1765564,35.2242844 C24.6095058,37.2584452 18.4467237,37.8715282 14.1575349,36.7222435 C4.21000497,34.0568109 -1.72754789,23.9597945 0.895639406,14.1699263 C3.5188267,4.38005804 13.7094065,-1.39543818 23.6569364,1.26999443 C24.2818598,1.43744214 24.8909574,1.63421933 25.4831009,1.85840731 C28.6300992,3.04987388 31.2982331,5.01555381 33.3181359,7.46743357 C35.3182421,9.89528296 36.9730832,12.7630207 37.2472586,15.9015025 C37.4223632,17.905923 37.5963124,19.436621 36.9166671,21.4753469 Z" 
				id="Oval-4-Copy" 
				fill="#979797" 
				fill-rule="nonzero"
			>
			</path>
			<path 
				d="M11.4608693,3.89290205 C11.2965349,3.86587969 11.1179073,3.8277571 10.8321026,3.76281829 C10.6369077,3.7184673 10.5509807,3.69953646 10.4453303,3.67843858 L10.6344743,2.73127456 C10.751208,2.7545857 10.8426436,2.77473017 11.046106,2.82095966 C11.4281877,2.90777396 11.5949976,2.94108507 11.7975924,2.96508658 L12.0170737,2.99108863 L13.0474571,4.51520241 C13.3364647,4.48855118 13.7255937,4.33034264 14.6186275,3.91762844 C15.1334106,3.67972219 15.4569663,3.54391768 15.8070256,3.43128829 C17.4073457,2.91639536 18.6384645,3.35212564 19.4803456,5.11107265 C19.7574702,5.4367699 19.582505,5.7532223 19.2711399,6.00210945 C19.2023521,6.05709446 19.1235747,6.11175886 19.0161991,6.18124488 C18.9707887,6.21063131 18.7939187,6.32268041 18.7533612,6.3488353 C18.6192985,6.43529008 18.518449,6.51109059 18.4525592,6.55596237 C18.4811817,6.58112031 18.5137741,6.60870447 18.5503244,6.6386571 C18.6879129,6.75140963 19.3349524,7.24031711 19.345192,7.24822006 C19.635068,7.47194859 19.8572384,7.65713888 20.0473964,7.84014536 C20.4011664,8.18061071 20.6212964,8.49088806 20.6866108,8.82552906 C20.7803329,9.30571724 20.5275599,9.70998635 20.0214896,9.95703774 C19.4663541,10.2280416 18.9574427,10.2159294 17.823342,10.0409258 C16.9278657,9.90264144 16.5725391,9.8827391 16.2646671,9.98248074 C16.0032677,10.0671666 15.4702349,10.70716 14.7535984,11.809737 C14.6359486,11.9907463 14.5124097,12.1847854 14.370764,12.4104073 C14.253263,12.5975699 13.8580777,13.2329304 13.7967756,13.3309134 C13.5771413,13.6819686 13.4136486,13.9372403 13.2636889,14.160713 C12.8310804,14.8053938 12.5582772,15.1294401 12.2564721,15.2458256 C12.0817024,15.3132223 11.9272349,15.3020715 11.57079,15.2450498 C11.4391513,15.2239911 10.8624022,15.1205089 10.7396284,15.0996255 C10.2216315,15.0115161 9.79901791,14.9569545 9.39509515,14.9342486 C8.09655818,14.8612534 7.38307883,15.1413303 7.24449021,15.8533664 C7.21865037,15.9861254 7.28137308,16.1090951 7.52987433,16.3594556 L9.89490938,16.7584123 L10.002196,16.8612311 C10.3777893,17.2211833 10.5946634,17.589775 10.9188266,18.3013203 C10.9420547,18.3523674 10.9420547,18.3523674 10.9649889,18.4028498 C11.3149577,19.1728916 11.5082942,19.4724782 11.8626204,19.7023544 C11.9254221,19.7430982 11.9634712,19.72739 12.2155297,19.4857752 C12.2515115,19.4511455 12.2515115,19.4511455 12.2892022,19.4146348 C12.8772362,18.8454112 13.2651067,18.6513271 13.7827329,18.9223084 L17.2492189,19.9216769 L17.3454548,20.0440334 C18.0614818,20.9544069 18.459494,21.201866 19.5753469,21.6424869 C20.6644913,22.0725612 21.1627304,22.593165 21.5685049,24.0434274 C22.1010946,25.9469349 21.5421256,26.7308654 19.8446326,27.565082 C19.046858,27.9573007 18.7506469,28.1622922 18.5557822,28.5012201 C18.3970674,28.7772725 18.2518482,29.0634313 18.1155912,29.3658099 C17.8384586,29.9808166 17.6731653,30.4491165 17.2967256,31.6169755 C17.0958339,32.2402178 16.9899384,32.5563148 16.8542295,32.9231684 C16.7484667,33.2090706 16.7623527,33.2448522 17.0029964,33.4771213 C17.4938253,33.9508475 17.6563227,34.3463123 17.4240125,35.0432093 C16.9642381,36.4224664 16.2260514,36.8999941 15.3582342,36.2566332 C15.0864367,36.0551346 14.8173956,35.7533481 14.4650011,35.2847599 C14.314063,35.0840535 13.7000613,34.2280149 13.5445851,34.0193209 C13.4486148,33.890501 13.3579055,33.7716421 13.2693357,33.6590099 C12.7515991,33.0006163 12.706682,32.3058126 12.8336714,30.4779435 C12.8415872,30.3639348 12.8415872,30.3639348 12.8492816,30.2504824 C12.9513249,28.7287536 12.8649794,28.0087573 12.4425465,27.5790845 C12.305647,27.4398387 12.0370438,27.3327388 11.4371869,27.1712425 C11.2179509,27.1127279 11.1027486,27.0817035 10.98713,27.0489832 C8.80053735,26.4301736 8.09290071,25.1881787 9.34232668,22.3287898 C9.60567574,21.7260992 8.83790009,20.3014187 7.97769089,19.8045197 C7.69397602,19.6406321 7.37872489,19.5450347 6.88836035,19.4561571 C6.80825092,19.4416374 6.74212485,19.4303031 6.59200035,19.4050239 C5.49858533,19.2206623 5.00484422,19.0487093 4.48954759,18.5093803 C3.97173553,17.9674184 3.9131894,17.4242462 4.00361661,16.1255073 C4.06677223,15.2112062 4.0387815,14.8305475 3.86118927,14.5372317 C3.91399857,14.6244529 3.92868717,14.6267877 3.87553965,14.6432732 C3.77363075,14.6748837 3.69377503,14.7378794 3.68931624,14.7504833 C3.42903668,15.4862269 3.06456946,16.1496238 2.62157638,16.4829123 C1.81379574,17.0906507 1.03447791,16.5734828 0.521625791,15.168936 L1.42890125,14.8376561 C1.61756748,15.3543558 1.80192821,15.6475812 1.94178828,15.7403946 C1.97384239,15.7616662 1.97364928,15.7616862 2.04089435,15.7110939 C2.28623936,15.5265072 2.57837549,14.9947661 2.77875028,14.4283579 C3.03371416,13.7076403 4.25806824,13.3278655 4.68741327,14.0369827 C5.00691389,14.5646781 5.0443888,15.0743163 4.97181828,16.125338 C4.89682183,17.2026499 4.93750252,17.5800723 5.18789924,17.8421471 C5.51212224,18.1814912 5.85697958,18.3015931 6.75258889,18.4526025 C6.90421683,18.4781278 6.97515199,18.4902864 7.06061492,18.5057764 C7.65099611,18.6127818 8.06062896,18.7369997 8.46081076,18.9681643 C9.69951307,19.6836995 10.7226155,21.582163 10.2273878,22.7155222 C9.22735819,25.004152 9.59622153,25.6515555 11.250142,26.1196179 C11.3588609,26.1503855 11.4671508,26.1795485 11.6882809,26.2385867 C12.4648614,26.4476613 12.8263916,26.5918138 13.1312942,26.9019421 C13.826435,27.6089967 13.934193,28.5075419 13.8129823,30.3151057 C13.8051622,30.4304099 13.8051622,30.4304099 13.7972138,30.5448846 C13.6901423,32.0860595 13.7285688,32.6804639 14.0285736,33.0619731 C14.1226524,33.1816109 14.2183916,33.3070607 14.3191334,33.4422853 C14.4820512,33.660968 15.0943492,34.5146314 15.2369386,34.7042363 C15.5368174,35.102993 15.7568578,35.3498148 15.9334515,35.4807336 C16.1436094,35.6365353 16.2258452,35.5833376 16.507717,34.7377628 C16.6010313,34.4578332 16.5831096,34.4142176 16.3405723,34.1801312 C15.8439424,33.7007853 15.6866605,33.2954993 15.94836,32.5880631 C16.0778797,32.2379403 16.1806047,31.9313072 16.3774371,31.3206583 C16.7649718,30.1183785 16.9381038,29.6278704 17.2350017,28.9690011 C17.3839122,28.6385422 17.543431,28.3242054 17.7184477,28.0197993 C18.0420378,27.4569795 18.4509554,27.1739899 19.3643112,26.7249331 C20.7474765,26.04519 21.0190585,25.6643079 20.6383619,24.3036757 C20.317031,23.1552196 20.0379267,22.8635871 19.2206074,22.5408493 C18.0092323,22.0625093 17.4720756,21.7392772 16.6837521,20.7634754 L13.431171,19.8173803 C13.3435214,19.7730951 13.2691382,19.8103152 12.960982,20.108614 C12.9232409,20.1451758 12.9232409,20.1451758 12.8839016,20.1830371 C12.340519,20.7039054 11.9073831,20.8827217 11.3369361,20.5126328 C10.7765067,20.1490431 10.5099209,19.7359522 10.0856762,18.80248 C10.0626847,18.7518717 10.0626847,18.7518717 10.0398771,18.7017489 C9.80047392,18.1762535 9.64115794,17.8898614 9.43264632,17.6599443 L7.07325149,17.2619391 L6.96596485,17.1591203 C6.40635888,16.6228184 6.18241244,16.2545625 6.29641652,15.6688361 C6.55656608,14.3322482 7.72634028,13.8730523 9.44930415,13.9699061 C9.89567151,13.9949979 10.3509974,14.0537829 10.9015922,14.1474371 C11.8472849,14.3082959 11.9446951,14.3247578 11.9195738,14.3399357 C12.0447039,14.2773186 12.2910758,13.9065136 13.5527438,11.896853 C13.6968848,11.6672564 13.8230378,11.4691114 13.9437621,11.2833717 C14.8116205,9.94813328 15.3935746,9.24940182 15.9669868,9.06363278 C16.4770623,8.898383 16.9106492,8.9226688 17.9398878,9.08161098 C18.8943859,9.22890232 19.2919617,9.23836473 19.5977714,9.08907578 C19.7402196,9.01953598 19.7403469,9.01933235 19.7386334,9.01055313 C19.7211259,8.92085272 19.5998913,8.74997028 19.3776385,8.53607602 C19.2176128,8.38206858 19.01954,8.2169649 18.7550567,8.01283464 C18.7590629,8.01592667 18.0930571,7.51268815 17.9381166,7.3857158 C17.5559166,7.0725064 17.3949681,6.89205345 17.3949681,6.58538398 C17.3949681,6.1505169 17.6496358,5.91132142 18.2298993,5.53711933 C18.2750612,5.50799519 18.4510653,5.39649461 18.491451,5.37035981 C17.9202519,4.20724249 17.2101903,3.99445566 16.1028518,4.35073488 C15.8001295,4.44813386 15.5051907,4.57192714 15.023822,4.79439099 C13.6875248,5.41195874 13.3253808,5.5421928 12.7301045,5.47167014 L12.5106232,5.44566809 L11.4608693,3.89290205 Z M18.6449026,5.26555343 C18.6532888,5.25926491 18.660994,5.25331098 18.6680717,5.24765345 C18.6656941,5.24955398 18.6632914,5.25159118 18.6608758,5.253762 L18.6449026,5.26555343 Z M11.9089493,14.3446469 C11.9124031,14.343315 11.9159372,14.3417555 11.9195738,14.3399357 C11.9170345,14.34147 11.9132431,14.3429911 11.9089493,14.3446469 Z M18.3433284,6.45322302 C18.3416613,6.45003326 18.3401747,6.44799032 18.3390449,6.44672358 C18.3397688,6.44753526 18.3405024,6.44835305 18.3412456,6.44917694 L18.3433284,6.45322302 Z" 
				id="Path" 
				fill="#979797" 
				fill-rule="nonzero"
			>
			</path>
			<path 
				d="M30.8474604,10.2120083 C30.8541784,10.2031114 30.8602057,10.1935668 30.8653547,10.1833559 C30.8636384,10.1867596 30.8619177,10.1901722 30.8601925,10.1935938 L30.8474604,10.2120083 Z M29.9006541,12.1127613 L29.5589355,12.7995882 L29.0873662,12.1945054 C28.4481009,11.3742476 27.6710673,10.9840084 26.7393582,10.9259185 C25.9696289,10.8779277 25.1629777,11.0467767 24.1448998,11.4055785 C23.9994732,11.4568313 23.171979,11.7656154 22.9776767,11.8282573 C22.449453,11.9985534 22.1547616,12.0281472 21.8828081,11.7561937 C21.3444748,11.2178603 20.9382921,10.2118167 21.3601566,9.66941952 C22.7063743,7.93856823 23.5345746,7.50779735 25.8687304,6.79050438 C27.064561,6.42302208 27.2058471,6.08138895 26.587702,3.814857 L27.5195336,3.56072112 C28.2641146,6.29085129 27.8974216,7.17752364 26.1524492,7.71375882 C23.9939609,8.37706869 23.3137667,8.73085728 22.1225643,10.2624033 C22.109993,10.2785664 22.2793774,10.704302 22.4756503,10.9672853 C22.5288133,10.9553047 22.5974481,10.9360214 22.681309,10.9089852 C22.8507586,10.8543556 23.660198,10.5523087 23.8238541,10.4946313 C24.9536524,10.0964558 25.872464,9.90412922 26.7994609,9.96192533 C27.7673174,10.0222689 28.6271294,10.3713993 29.3504109,11.05111 C29.6122232,10.526159 29.82972,10.0919671 30.0029357,9.74846684 C30.2025865,9.35254368 30.6032637,9.2553508 30.9920005,9.41110177 C31.2139239,9.50001742 31.4426173,9.66823619 31.6952803,9.90598518 C31.8177606,10.0212359 31.9442548,10.1518069 32.0738098,10.2950846 C32.2392291,10.4780254 32.401648,10.6726296 32.5549266,10.8670953 C32.6470571,10.9839818 32.7162811,11.0756625 32.70736,11.073224 L34.1561575,12.5220215 L33.4731878,13.2049911 L31.975853,11.6995009 C31.94284,11.6542896 31.8806354,11.5719055 31.7963677,11.4649945 C31.6556494,11.2864643 31.5067616,11.1080725 31.3573942,10.9428839 C31.2441971,10.8176967 31.1353823,10.7053749 31.0333864,10.6093995 C30.9317104,10.5137251 30.8397942,10.4375732 30.7641769,10.3842992 C30.5391483,10.8318234 30.251288,11.4080154 29.9006541,12.1127613 Z" 
				id="Path-2" 
				fill="#979797" 
				fill-rule="nonzero"
			>
			</path>
			<path 
				d="M36.376807,13.0376059 L37.047728,13.7324153 C36.2797082,14.4740297 36.1686279,14.5526879 35.7208575,14.4085628 C35.711669,14.4056053 34.9655463,13.998383 34.4881329,13.8447166 C34.4699625,13.838868 34.2675432,13.9373111 33.9069517,14.2020989 C33.8618599,14.2352982 33.8618599,14.2352982 33.8160567,14.2692398 C33.0575352,14.8316652 32.8296471,14.9607691 32.3959581,14.8571045 C32.1537433,14.7992079 31.9368594,14.7412152 31.7336396,14.6804398 C31.4777522,14.6039136 31.2485914,14.5249147 30.9808376,14.4233145 C30.8541388,14.3752381 30.3765631,14.187762 30.2616898,14.1436946 C29.9499041,14.0240881 29.6570892,13.9184306 29.3155636,13.8045888 C27.5010242,13.1997423 25.9929211,13.4723316 25.1717202,14.6617821 C23.8147276,16.6272883 23.5053065,17.2848797 23.7299625,18.0760603 C23.9021091,18.6823166 24.4900274,19.3059434 25.6249311,19.9877993 C26.1103818,20.2794605 26.5317953,20.2667496 27.2974265,20.0124879 C27.3685535,19.988867 27.4268533,19.9689004 27.5604819,19.9227043 C28.4785769,19.6054847 28.9336287,19.514021 29.5586567,19.6330931 L29.9512127,19.7078776 L29.9512127,21.5562911 L28.9853477,21.5562911 L28.9853477,20.5544456 C28.7081184,20.5699504 28.3887405,20.658419 27.8759092,20.8356122 C27.7408096,20.8823238 27.678012,20.9038309 27.6018373,20.9291281 C26.5951165,21.2634542 25.9072524,21.2842021 25.1275076,20.8157275 C23.8020264,20.0193716 23.0517322,19.2235066 22.8008285,18.3398882 C22.4600326,17.1396929 22.8297755,16.3539039 24.3768859,14.1130256 C25.4799769,12.5152776 27.4394438,12.1611044 29.6209969,12.8882888 C29.9768874,13.006919 30.2830563,13.117395 30.607631,13.2419076 C30.7278498,13.2880256 31.2032064,13.4746306 31.3234991,13.5202762 C31.5708843,13.6141474 31.7785902,13.6857501 32.0103826,13.7550704 C32.195907,13.8105538 32.3954183,13.8639012 32.6205031,13.9177032 C32.6210234,13.9178276 32.8215987,13.804197 33.2407791,13.493385 C33.2876179,13.4586753 33.2876179,13.4586753 33.3352774,13.4235852 C33.9788166,12.9510246 34.3313361,12.7795829 34.7840667,12.9253046 C35.2251557,13.0672792 35.7508713,13.328892 35.94758,13.4395733 C36.0209841,13.3786645 36.1339912,13.2720734 36.376807,13.0376059 Z" 
				id="Path-3" 
				fill="#979797" 
				fill-rule="nonzero">
			</path>
		</g>
	</g>
</svg>
