<?xml version="1.0" encoding="UTF-8"?>
<svg 
	width="42px" 
	height="37px" 
	viewBox="0 0 42 37" 
	version="1.1" 
	xmlns="http://www.w3.org/2000/svg" 
	xmlns:xlink="http://www.w3.org/1999/xlink"
>
	<!-- Generator: sketchtool 48.2 (47327) - http://www.bohemiancoding.com/sketch -->
	<title>350AAB73-15DA-40FC-879A-DC17039180F1</title>
	<desc>Created with sketchtool.</desc>
	<defs></defs>
	<g 
		id="VPN----Error-messages" 
		stroke="none" 
		stroke-width="1" 
		fill="none" 
		fill-rule="evenodd" 
		transform="translate(-196.000000, -532.000000)"
	>
		<g 
			id="icon-warning" 
			transform="translate(196.000000, 532.000000)" 
			fill="#8B8B8B" 
			fill-rule="nonzero"
		>
			<path d="M22.5094733,2.49967999 C22.3601101,2.24452421 22.1290496,2.0316936 21.8422341,1.88939088 C21.0150651,1.47828733 19.9805031,1.76411921 19.552103,2.49889053 L1.2051913,33.9104412 C1.08337041,34.1187055 1.02029225,34.3492105 1.02029225,34.5819324 C1.02029225,35.3788194 1.75084674,36.0522916 2.68394866,36.0522916 L39.377166,36.0522916 C39.6621476,36.0522916 39.942078,35.9872512 40.1896184,35.8640104 C40.9794586,35.4723435 41.2615239,34.6056474 40.854921,33.9103571 L40.0234967,32.4886227 L22.5094733,2.49967999 Z M41.6857428,34.3840395 L41.991297,34.3840395 C42.0737603,35.3124029 41.5666791,36.2415853 40.6200992,36.7109765 C40.2388313,36.9007972 39.8108582,37 39.377166,37 L2.68394866,37 C1.23513085,37 0.0608258929,35.9173543 0.0608258929,34.5819324 C0.0608258929,34.1822597 0.168534059,33.7883102 0.374418695,33.4363311 L18.7210274,2.02529882 C19.4073095,0.848219743 20.9991027,0.409438241 22.2734905,1.0428098 C22.7252929,1.26696992 23.0960759,1.60845639 23.3400873,2.02529882 L41.6864577,33.4359232 L41.6857428,34.3840395 Z" id="Shape"></path>
			<path d="M20,15 L21.5,15 L21.5,26 L20,26 L20,15 Z M20,29 L21.5,29 L21.5,31 L20,31 L20,29 Z" id="Shape"></path>
		</g>
	</g>
</svg>